<?xml version="1.0" encoding="utf-8"?>
<!-- Generator: Adobe Illustrator 15.0.2, SVG Export Plug-In . SVG Version: 6.00 Build 0)  -->
<svg version="1.2" baseProfile="tiny" id="Ebene_1" xmlns="http://www.w3.org/2000/svg" xmlns:xlink="http://www.w3.org/1999/xlink"
	 x="0px" y="0px" width="500px" height="496.178px" viewBox="0 0 500 496.178" xml:space="preserve">
<g>
	<path fill="#FFFFFF" d="M53.438,248.089c0,108.14,87.787,198.474,196.565,198.474c108.778,0,196.559-90.334,196.559-198.474
		c0-108.778-86.505-198.473-196.559-198.473C139.954,49.616,53.438,139.311,53.438,248.089z"/>
	<path fill="#DEE6F2" d="M236.572,261.458l138.957,138.956c43.422-36.653,71.033-91.686,71.033-152.324
		c0-6.543-0.329-13.019-0.94-19.407L342.094,125.156L236.572,261.458z"/>
	<path fill="#1452A2" d="M342.409,124.899l-67.912,117.62l81.167,51.704l-19.813,31.1l-95.751-61
		c-1.687-1.074-3.068-2.427-4.272-3.898c-0.313-0.365-0.648-0.709-0.931-1.095c-0.095-0.134-0.167-0.284-0.26-0.422
		c-3.899-5.674-4.503-13.286-0.83-19.644l76.671-132.799L342.409,124.899z M250.003,0C113.233-0.005,0.005,111.319,0,248.727
		c0.005,138.036,113.233,247.451,249.998,247.451C386.772,496.178,500,386.763,500,248.727C500,111.319,386.772-0.005,250.003,0z
		 M250.003,49.616c110.054,0,196.559,89.695,196.559,198.473c0,108.14-87.781,198.474-196.559,198.474
		c-108.778,0-196.565-90.334-196.565-198.479C53.438,139.311,139.954,49.616,250.003,49.616z"/>
</g>
</svg>
