<?xml version="1.0" encoding="utf-8"?>
<!-- Generator: Adobe Illustrator 15.0.2, SVG Export Plug-In . SVG Version: 6.00 Build 0)  -->
<svg version="1.2" baseProfile="tiny" id="Ebene_1" xmlns="http://www.w3.org/2000/svg" xmlns:xlink="http://www.w3.org/1999/xlink"
	 x="0px" y="0px" width="500px" height="496.178px" viewBox="0 0 500 496.178" xml:space="preserve">
<g>
	<path fill="#FFFFFF" d="M53.438,248.084c0,108.146,87.787,198.473,196.565,198.473c108.778,0,196.562-90.327,196.562-198.473
		c0-108.773-86.508-198.468-196.562-198.468C139.954,49.616,53.438,139.311,53.438,248.084z"/>
	<path fill="#DEE6F2" d="M267.366,96.074L254.992,245.97l35.622,110.019l61.463,61.462c49.811-30.867,84.96-83.461,92.783-143.885
		L267.366,96.074z"/>
	<path fill="#1452A2" d="M322.504,337.583l-31.932,18.436l-56.765-98.32c-0.172-0.299-0.262-0.622-0.417-0.926
		c-0.309-0.607-0.597-1.215-0.836-1.857c-0.206-0.55-0.365-1.102-0.514-1.656c-0.157-0.586-0.301-1.167-0.401-1.773
		c-0.108-0.647-0.159-1.291-0.195-1.944c-0.021-0.354-0.108-0.694-0.108-1.06l0.002-153.343h36.87l-0.003,148.4L322.504,337.583z
		 M250.002,0C113.232-0.005,0.005,111.319,0,248.728c0.005,138.035,113.232,247.45,249.998,247.45
		C386.773,496.178,500,386.762,500,248.728C500,111.319,386.773-0.005,250.002,0z M250.002,49.616
		c110.054,0,196.561,89.695,196.561,198.473c0,108.141-87.781,198.475-196.561,198.475c-108.778,0-196.565-90.334-196.565-198.479
		C53.438,139.311,139.954,49.616,250.002,49.616z"/>
</g>
</svg>
