<?xml version="1.0" encoding="utf-8"?>
<!-- Generator: Adobe Illustrator 19.0.0, SVG Export Plug-In . SVG Version: 6.00 Build 0)  -->
<svg version="1.1" id="Ebene_1" xmlns="http://www.w3.org/2000/svg"  x="0px" y="0px"
	 viewBox="0 0 95 94.2" style="enable-background:new 0 0 95 94.2;" xml:space="preserve">
<style type="text/css">
	.st0{fill:#FFFFFF;}
	.st1{fill:#1953A1;}
	.st2{opacity:0.15;fill:#1953A1;enable-background:new    ;}
</style>
<g id="XMLID_1_">
	<path class="st0" d="M10.2,47.1c0,20.5,16.7,37.7,37.3,37.7c20.7,0,37.3-17.1,37.3-37.7c0-20.7-16.4-37.7-37.3-37.7
		C26.7,9.4,10.2,26.5,10.2,47.1z"/>
	<polygon class="st1" points="33.6,66 28.7,61 44,45.6 44,18.1 51,18.1 51,48.5 	"/>
	<polygon class="st2" points="51,18.1 51,48.5 33.6,66 31.2,63.5 31.2,63.5 59.1,91.5 91.8,58.8 	"/>
	<path class="st1" d="M95,47.2c0,26.2-21.5,47-47.5,47S0,73.4,0,47.2C0,21.1,21.5,0,47.5,0C73.5,0,95,21.1,95,47.2z M10.2,47.1
		c0,20.5,16.7,37.7,37.3,37.7c20.7,0,37.3-17.2,37.3-37.7c0-20.7-16.4-37.7-37.3-37.7C26.7,9.4,10.2,26.5,10.2,47.1z"/>
</g>
</svg>
