<?xml version="1.0" encoding="utf-8"?>
<!-- Generator: Adobe Illustrator 18.0.0, SVG Export Plug-In . SVG Version: 6.00 Build 0)  -->
<!DOCTYPE svg PUBLIC "-//W3C//DTD SVG 1.1//EN" "http://www.w3.org/Graphics/SVG/1.1/DTD/svg11.dtd">
<svg version="1.1" id="Ebene_1" xmlns="http://www.w3.org/2000/svg" xmlns:xlink="http://www.w3.org/1999/xlink" x="0px" y="0px"
	 viewBox="0 0 396.7 97.2" enable-background="new 0 0 396.7 97.2" xml:space="preserve">
<g>
	<path fill="#FFFFFF" d="M144.1,48.6c0,20.5,16.7,37.7,37.3,37.7c20.7,0,37.3-17.1,37.3-37.7c0-20.7-16.4-37.7-37.3-37.7
		C160.6,10.9,144.1,28,144.1,48.6z"/>
	<g>
		<path fill="#FFFFFF" d="M49,0C22,0,0,22,0,49c0,26.6,22,48.2,49,48.2c9.9,0,19.8-3.3,28.1-9.2l0.6-0.4V70.6l-2.6,2.6
			c-7.4,7.4-17,11.6-26.5,11.6c-19.2,0-35.5-16.6-35.5-36.2s16.1-36.2,35.2-36.2c9.8,0,19.6,4.2,26.7,11.6l2.6,2.7v-17L77,9.2
			C68.7,3,59.5,0,49,0z"/>
		<polygon fill="#FFFFFF" points="104.9,1.6 91.8,1.6 91.8,95.6 130,95.6 130,83.2 104.9,83.2 		"/>
		<polygon fill="#FFFFFF" points="351.1,45.5 395.5,1.6 377.6,1.6 340.9,38.4 340.9,1.6 327.8,1.6 327.8,95.6 340.9,95.6 
			340.9,55.5 341.9,54.5 378.1,95.1 378.6,95.6 396.7,95.6 		"/>
		<path fill="#FFFFFF" d="M284.9,0c-27,0-49,22-49,49c0,26.6,22,48.2,49,48.2c9.9,0,19.8-3.3,28.1-9.2l0.6-0.4V70.6l-2.6,2.6
			c-7.4,7.4-17,11.6-26.5,11.6c-19.2,0-35.5-16.6-35.5-36.2s16.1-36.2,35.2-36.2c9.8,0,19.6,4.2,26.7,11.6l2.6,2.7v-17L313,9.2
			C304.7,3,295.5,0,284.9,0z"/>
	</g>
	<path fill="#1452A2" d="M76.1,23c-7.2-7.5-17.3-12.1-27.8-12.1c-20.3,0-36.7,17.6-36.7,37.7c0,20,16.5,37.7,37,37.7
		c10.3,0,20.3-4.8,27.5-12.1v12.6c-7.9,5.7-17.5,8.9-27.2,8.9C23.2,95.7,1.5,74.8,1.5,49C1.5,22.9,22.9,1.5,49,1.5
		c10.1,0,19.1,2.9,27.2,8.9V23z M103.4,84.7h25.1v9.4H93.3V3.1h10.1V84.7z M312.1,23c-7.2-7.5-17.3-12.1-27.8-12.1
		c-20.3,0-36.7,17.6-36.7,37.7c0,20,16.5,37.7,37,37.7c10.3,0,20.3-4.8,27.5-12.1v12.6c-7.8,5.7-17.5,8.9-27.2,8.9
		c-25.7,0-47.5-20.9-47.5-46.7c0-26.1,21.4-47.5,47.5-47.5c10.1,0,19.1,2.9,27.2,8.9V23z M378.2,3.1h13.6l-42.8,42.4l44.2,48.7h-14
		l-37.3-41.8l-2.5,2.5v39.3h-10.1V3.1h10.1v39L378.2,3.1z"/>
	<polygon fill="#1452A2" points="167.5,67.5 162.6,62.5 177.9,47.1 177.9,19.6 184.9,19.6 184.9,50 	"/>
	<polygon opacity="0.15" fill="#1452A2" points="184.9,19.6 184.9,50 167.5,67.5 165.1,65 165.1,65 193,93 225.7,60.3 	"/>
	<path fill="#1452A2" d="M228.9,48.7c0,26.2-21.5,47-47.5,47c-26,0-47.5-20.8-47.5-47c0-26.1,21.5-47.2,47.5-47.2
		C207.4,1.5,228.9,22.6,228.9,48.7z M144.1,48.6c0,20.5,16.7,37.7,37.3,37.7c20.7,0,37.3-17.2,37.3-37.7c0-20.7-16.4-37.7-37.3-37.7
		C160.6,10.9,144.1,28,144.1,48.6z"/>
</g>
</svg>
