<?xml version="1.0" standalone="no"?>
<!DOCTYPE svg PUBLIC "-//W3C//DTD SVG 20010904//EN"
        "http://www.w3.org/TR/2001/REC-SVG-20010904/DTD/svg10.dtd">
<svg version="1.0" xmlns="http://www.w3.org/2000/svg"
     width="760.000000pt" height="760.000000pt" viewBox="0 0 760.000000 760.000000"
     preserveAspectRatio="xMidYMid meet">
    <metadata>
        Created by potrace 1.11, written by Peter Selinger 2001-2013
    </metadata>
    <g transform="translate(0.000000,760.000000) scale(0.100000,-0.100000)"
       fill="#000000" stroke="none">
        <path d="M3515 7549 c-619 -56 -1169 -231 -1669 -531 -835 -502 -1453 -1308
-1707 -2228 -97 -352 -133 -623 -134 -1000 0 -269 8 -380 46 -610 192 -1178
946 -2196 2029 -2739 290 -145 523 -231 820 -302 323 -78 546 -103 900 -103
354 0 577 25 900 103 297 71 530 157 820 302 1083 543 1837 1561 2029 2739 38
230 46 341 46 610 -1 377 -37 648 -134 1000 -402 1457 -1675 2550 -3191 2739
-246 31 -547 39 -755 20z m655 -764 c276 -37 520 -99 745 -192 983 -402 1674
-1286 1835 -2348 27 -176 38 -546 21 -718 -97 -992 -646 -1850 -1507 -2352
-481 -281 -1087 -424 -1637 -387 -740 50 -1385 342 -1913 867 -490 488 -770
1054 -876 1770 -20 140 -17 628 5 780 63 426 201 812 412 1160 503 827 1341
1348 2307 1434 138 13 466 5 608 -14z"/>
        <path d="M3520 5012 l0 -1097 -241 -240 c-132 -132 -407 -410 -611 -618 l-372
-378 198 -197 198 -197 694 700 694 700 0 1212 0 1213 -280 0 -280 0 0 -1098z"/>
    </g>
</svg>
